<svg width="322" height="322" viewBox="0 0 322 322" fill="none" xmlns="http://www.w3.org/2000/svg">
<g filter="url(#filter0_d_26_11653)">
<rect x="61" y="47" width="200" height="200" rx="21" fill="#1F1F1F"/>
<path d="M104 147C104 136.664 106.546 127.126 111.638 118.386C116.73 109.646 123.646 102.73 132.386 97.638C141.126 92.546 150.664 90 161 90C171.336 90 180.874 92.546 189.614 97.638C198.354 102.73 205.27 109.646 210.362 118.386C215.454 127.126 218 136.664 218 147C218 157.336 215.454 166.874 210.362 175.614C205.27 184.354 198.354 191.27 189.614 196.362C180.874 201.454 171.336 204 161 204C150.664 204 141.126 201.454 132.386 196.362C123.646 191.27 116.73 184.354 111.638 175.614C106.546 166.874 104 157.336 104 147ZM113.462 147C113.462 158.856 117.452 169.306 125.432 178.35C129.08 171.206 134.856 164.404 142.76 157.944C150.664 151.484 158.378 147.418 165.902 145.746C164.762 143.086 163.66 140.692 162.596 138.564C149.524 142.744 135.388 144.834 120.188 144.834C117.224 144.834 115.02 144.796 113.576 144.72C113.576 145.024 113.557 145.404 113.519 145.86C113.481 146.316 113.462 146.696 113.462 147ZM114.944 135.258C116.616 135.41 119.086 135.486 122.354 135.486C135.046 135.486 147.092 133.776 158.492 130.356C152.716 120.096 146.37 111.546 139.454 104.706C133.45 107.746 128.301 111.964 124.007 117.36C119.713 122.756 116.692 128.722 114.944 135.258ZM131.93 184.506C140.518 191.194 150.208 194.538 161 194.538C166.624 194.538 172.21 193.474 177.758 191.346C176.238 178.35 173.274 165.772 168.866 153.612C161.874 155.132 154.825 158.97 147.719 165.126C140.613 171.282 135.35 177.742 131.93 184.506ZM149.372 101.058C156.06 107.974 162.254 116.6 167.954 126.936C178.29 122.604 186.08 117.094 191.324 110.406C182.508 103.11 172.4 99.462 161 99.462C157.124 99.462 153.248 99.994 149.372 101.058ZM172.058 135.03C173.198 137.462 174.49 140.54 175.934 144.264C181.558 143.732 187.676 143.466 194.288 143.466C199 143.466 203.674 143.58 208.31 143.808C207.702 133.472 203.978 124.276 197.138 116.22C192.198 123.592 183.838 129.862 172.058 135.03ZM178.784 152.244C182.66 163.492 185.282 175.044 186.65 186.9C192.654 183.024 197.556 178.046 201.356 171.966C205.156 165.886 207.436 159.312 208.196 152.244C202.648 151.864 197.594 151.674 193.034 151.674C188.854 151.674 184.104 151.864 178.784 152.244Z" fill="#DCDCDC"/>
<rect x="62.5" y="48.5" width="197" height="197" rx="19.5" stroke="white" stroke-opacity="0.51" stroke-width="3"/>
</g>
<defs>
<filter id="filter0_d_26_11653" x="0" y="0" width="322" height="322" filterUnits="userSpaceOnUse" color-interpolation-filters="sRGB">
<feFlood flood-opacity="0" result="BackgroundImageFix"/>
<feColorMatrix in="SourceAlpha" type="matrix" values="0 0 0 0 0 0 0 0 0 0 0 0 0 0 0 0 0 0 127 0" result="hardAlpha"/>
<feOffset dy="14"/>
<feGaussianBlur stdDeviation="30.5"/>
<feComposite in2="hardAlpha" operator="out"/>
<feColorMatrix type="matrix" values="0 0 0 0 0.334167 0 0 0 0 0.334167 0 0 0 0 0.334167 0 0 0 0.2 0"/>
<feBlend mode="normal" in2="BackgroundImageFix" result="effect1_dropShadow_26_11653"/>
<feBlend mode="normal" in="SourceGraphic" in2="effect1_dropShadow_26_11653" result="shape"/>
</filter>
</defs>
</svg>
