<svg width="121" height="120" viewBox="0 0 121 120" fill="none" xmlns="http://www.w3.org/2000/svg">
<path fill-rule="evenodd" clip-rule="evenodd" d="M66.5 50.7C68.2 48.8 69.5 46.9 71.2 45.3C76.5 40.3 82.7 37.8 90 37.9C94 37.9 98 38.2 101.8 39.3C110.6 41.9 115.7 48 118.2 56.6C120 63 120.3 69.6 120.4 76.3C120.4 90.3 120.3 104.3 120.3 118.4C120.4 119.7 120 120 118.7 120C111.5 119.933 104.267 119.933 97 120C95.7 120 95.5 119.6 95.5 118.4C95.5 105.067 95.5 91.7334 95.5 78.4C95.5 75.1 95.3 71.7 94.3 68.5C92.6 62.5 88.3 59.4 82 59.7C73.5 60.2 69 64.4 67.9 73.2C67.6334 75.2667 67.5 77.3334 67.5 79.4C67.5 92.4 67.5 105.4 67.6 118.4C67.6 119.6 67.2 120 65.9 120C58.6334 119.933 51.3667 119.933 44.1 120C42.9 120 42.6 119.7 42.6 118.5C42.6 92.8333 42.6 67.1334 42.6 41.4C42.6 40.2 43 39.9 44.2 39.9C51.1333 39.9667 58.0334 39.9667 64.9 39.9C66.2 39.9 66.5 40.3 66.5 41.5C66.4 44.6 66.5 47.6 66.5 50.7ZM26.9 80.1C26.9 92.8 26.9 105.5 26.9 118.2C26.9 119.6 26.6 120 25.1 120C17.9 119.9 10.7 120 3.5 120C2.3 120 1.90002 119.7 1.90002 118.5C1.96669 92.7667 2 67.0334 2 41.3C2 40.3 2.19999 39.9 3.29999 39.9C10.6333 39.9667 17.9667 39.9667 25.3 39.9C26.7 39.9 26.9 40.4 26.9 41.6C26.9 54.4 26.9 67.2333 26.9 80.1ZM28.9 14.4C28.9 22.4 22.4 28.9 14.5 28.9C6.6 28.9 0.1 22.4 0 14.5C0 6.6 6.5 0 14.5 0C22.4 0 28.9 6.50002 28.9 14.4Z" fill="#DCDCDC"/>
</svg>
