<svg width="322" height="322" viewBox="0 0 322 322" fill="none" xmlns="http://www.w3.org/2000/svg">
<g filter="url(#filter0_d_26_11667)">
<rect x="61" y="47" width="200" height="200" rx="21" fill="#1F1F1F"/>
<path fill-rule="evenodd" clip-rule="evenodd" d="M184.5 90.4C190.6 90.6 194.7 91.6 198.3 93C202.1 94.5 205.3 96.4 208.4 99.6C211.6 102.8 213.6 105.9 215 109.7C216.4 113.3 217.4 117.5 217.7 123.5C217.9 129.6 218 131.5 218 147C218 162.5 217.9 164.4 217.7 170.5C217.4 176.6 216.4 180.7 215 184.4C213.6 188.1 211.6 191.3 208.4 194.5C205.3 197.6 202.1 199.6 198.3 201C194.7 202.4 190.6 203.4 184.5 203.7C178.4 204 176.5 204 161 204C145.5 204 143.6 204 137.5 203.7C131.4 203.4 127.3 202.4 123.7 201C119.9 199.6 116.7 197.6 113.6 194.5C110.4 191.3 108.4 188.1 107 184.4C105.6 180.7 104.6 176.6 104.3 170.5C104.1 164.4 104 162.5 104 147C104 131.5 104.1 129.6 104.3 123.5C104.6 117.5 105.6 113.3 107 109.7C108.4 105.9 110.4 102.8 113.6 99.6C116.7 96.4 119.9 94.5 123.7 93C127.3 91.6 131.4 90.6 137.5 90.4C143.6 90.1 145.5 90 161 90C176.5 90 178.4 90.1 184.5 90.4ZM138 100.6C132.4 100.9 129.4 101.8 127.4 102.6C124.7 103.6 122.8 104.9 120.8 106.9C118.8 108.8 117.6 110.7 116.6 113.4C115.8 115.4 114.9 118.4 114.6 124C114.3 130 114.3 131.8 114.3 147C114.3 162.2 114.3 164 114.6 170.1C114.9 175.6 115.8 178.6 116.6 180.6C117.6 183.3 118.8 185.2 120.8 187.2C122.8 189.2 124.7 190.4 127.4 191.5C129.4 192.2 132.4 193.2 138 193.4C144 193.7 145.8 193.8 161 193.8C176.2 193.8 178 193.7 184 193.4C189.6 193.2 192.6 192.2 194.6 191.5C197.3 190.4 199.2 189.2 201.2 187.2C203.2 185.2 204.4 183.3 205.4 180.6C206.2 178.6 207.1 175.6 207.4 170.1C207.7 164 207.7 162.2 207.7 147C207.7 131.8 207.7 130 207.4 124C207.1 118.4 206.2 115.4 205.4 113.4C204.4 110.7 203.2 108.8 201.2 106.9C199.2 104.9 197.3 103.6 194.6 102.6C192.6 101.8 189.6 100.9 184 100.6C178 100.4 176.2 100.3 161 100.3C145.8 100.3 144 100.4 138 100.6ZM190.3 147C190.3 163.2 177.2 176.3 161 176.3C144.8 176.3 131.7 163.2 131.7 147C131.7 130.9 144.8 117.8 161 117.8C177.2 117.8 190.3 130.9 190.3 147ZM180 147C180 136.5 171.5 128 161 128C150.5 128 142 136.5 142 147C142 157.5 150.5 166 161 166C171.5 166 180 157.5 180 147ZM198.3 116.6C198.3 120.4 195.2 123.4 191.4 123.4C187.6 123.4 184.6 120.4 184.6 116.6C184.6 112.8 187.6 109.8 191.4 109.8C195.2 109.8 198.3 112.8 198.3 116.6Z" fill="#DCDCDC"/>
<rect x="62.5" y="48.5" width="197" height="197" rx="19.5" stroke="#919191" stroke-width="3"/>
</g>
<defs>
<filter id="filter0_d_26_11667" x="0" y="0" width="322" height="322" filterUnits="userSpaceOnUse" color-interpolation-filters="sRGB">
<feFlood flood-opacity="0" result="BackgroundImageFix"/>
<feColorMatrix in="SourceAlpha" type="matrix" values="0 0 0 0 0 0 0 0 0 0 0 0 0 0 0 0 0 0 127 0" result="hardAlpha"/>
<feOffset dy="14"/>
<feGaussianBlur stdDeviation="30.5"/>
<feComposite in2="hardAlpha" operator="out"/>
<feColorMatrix type="matrix" values="0 0 0 0 0.334167 0 0 0 0 0.334167 0 0 0 0 0.334167 0 0 0 0.2 0"/>
<feBlend mode="normal" in2="BackgroundImageFix" result="effect1_dropShadow_26_11667"/>
<feBlend mode="normal" in="SourceGraphic" in2="effect1_dropShadow_26_11667" result="shape"/>
</filter>
</defs>
</svg>
