<svg width="1234" height="132" viewBox="0 0 1234 132" fill="none" xmlns="http://www.w3.org/2000/svg">
<path d="M13.2812 27.3975H28.9062C29.6631 27.3975 30.3223 27.1289 30.8594 26.5918C31.4209 26.0303 31.6895 25.3711 31.6895 24.6143C31.6895 23.833 31.4209 23.1738 30.8594 22.6367C30.3223 22.0752 29.6631 21.8066 28.9062 21.8066H13.2812V27.3975ZM0.488281 12.2119H32.1045C38.8672 12.1387 44.6045 17.8271 44.5068 24.6143C44.6045 31.377 38.8672 37.1143 32.1045 37.0166H13.2812V45.0244H0.488281V12.2119ZM50.498 12.1875H82.1143C88.877 12.1143 94.6143 17.8027 94.5166 24.5898C94.5166 27.0557 93.8574 29.3018 92.5391 31.3037C91.2451 33.2812 89.5117 34.7949 87.3633 35.7959L94.5166 45H80.8936L74.7168 36.9922H63.291V45H50.498V12.1875ZM78.8916 21.7822H63.291V27.373H78.8916C79.6729 27.373 80.332 27.1045 80.8691 26.5674C81.4307 26.0059 81.6992 25.3467 81.6992 24.5898C81.6992 23.0273 80.4541 21.7822 78.8916 21.7822ZM122.48 11.3574C134.834 11.3574 144.868 14.9707 144.868 27.373V29.7656C144.917 42.168 134.81 45.7568 122.48 45.7812C110.127 45.7568 100.02 42.168 100.068 29.7656V27.373C100.02 14.9463 110.127 11.3818 122.48 11.3574ZM132.075 28.96V28.1543C132.148 22.8076 127.705 21.8311 122.48 21.7578C117.231 21.8311 112.788 22.8076 112.861 28.1543V28.96C112.788 34.3311 117.231 35.3076 122.48 35.3809C127.705 35.3076 132.148 34.3311 132.075 28.96ZM182.451 31.377H195.562C194.756 42.4609 185.039 45.7812 173.223 45.7812C160.918 45.7568 150.762 42.1924 150.811 29.7656V27.373C150.762 14.9707 160.918 11.4062 173.223 11.3574C185.039 11.3818 194.756 14.7021 195.562 25.7617H182.451C181.255 22.5391 177.617 21.7822 173.223 21.7822C167.998 21.8555 163.555 22.7832 163.628 28.1787V28.9844C163.555 34.3311 167.998 35.3076 173.223 35.3809C177.617 35.3809 181.279 34.5996 182.451 31.377ZM201.895 45.0244V12.2119H240.298V20.6104H214.688V24.8096H240.298V32.4023H214.688V36.6016H240.298V45.0244H201.895ZM259.692 22.9785C259.692 24.4189 263.672 24.6143 268.823 24.8584C277.979 25.3223 290.845 25.957 290.82 34.1846C290.82 43.5596 280.078 45.7812 268.555 45.7812C257.056 45.7568 247.51 44.3652 246.289 34.1846H259.692C261.157 36.7236 264.551 37.3828 268.555 37.3828C272.534 37.3828 277.417 36.7236 277.417 34.1846C277.417 32.7441 273.438 32.5244 268.286 32.2803C259.131 31.8164 246.265 31.1816 246.289 22.9785C246.289 13.6035 257.031 11.3574 268.555 11.3574C280.054 11.4307 289.6 12.7246 290.82 22.9785H277.417C275.952 20.3906 272.559 19.7803 268.555 19.7803C264.575 19.7803 259.692 20.3662 259.692 22.9785ZM309.116 22.9785C309.116 24.4189 313.096 24.6143 318.247 24.8584C327.402 25.3223 340.269 25.957 340.244 34.1846C340.244 43.5596 329.502 45.7812 317.979 45.7812C306.479 45.7568 296.934 44.3652 295.713 34.1846H309.116C310.581 36.7236 313.975 37.3828 317.979 37.3828C321.958 37.3828 326.841 36.7236 326.841 34.1846C326.841 32.7441 322.861 32.5244 317.71 32.2803C308.555 31.8164 295.688 31.1816 295.713 22.9785C295.713 13.6035 306.455 11.3574 317.979 11.3574C329.478 11.4307 339.023 12.7246 340.244 22.9785H326.841C325.376 20.3906 321.982 19.7803 317.979 19.7803C313.999 19.7803 309.116 20.3662 309.116 22.9785Z" fill="white"/>
<path d="M16.192 95.696V98.064H10.112V118H7.2V98.064H1.088V95.696H16.192ZM28.8005 100.144C30.1232 100.144 31.3178 100.432 32.3845 101.008C33.4512 101.563 34.2832 102.405 34.8805 103.536C35.4992 104.667 35.8085 106.043 35.8085 107.664V118H32.9285V108.08C32.9285 106.331 32.4912 104.997 31.6165 104.08C30.7418 103.141 29.5472 102.672 28.0325 102.672C26.4965 102.672 25.2698 103.152 24.3525 104.112C23.4565 105.072 23.0085 106.469 23.0085 108.304V118H20.0965V94.32H23.0085V102.96C23.5845 102.064 24.3738 101.371 25.3765 100.88C26.4005 100.389 27.5418 100.144 28.8005 100.144ZM42.3892 97.616C41.8346 97.616 41.3652 97.424 40.9812 97.04C40.5972 96.656 40.4052 96.1867 40.4052 95.632C40.4052 95.0773 40.5972 94.608 40.9812 94.224C41.3652 93.84 41.8346 93.648 42.3892 93.648C42.9226 93.648 43.3706 93.84 43.7332 94.224C44.1172 94.608 44.3092 95.0773 44.3092 95.632C44.3092 96.1867 44.1172 96.656 43.7332 97.04C43.3706 97.424 42.9226 97.616 42.3892 97.616ZM43.7972 100.464V118H40.8852V100.464H43.7972ZM55.2882 118.288C53.9442 118.288 52.7389 118.064 51.6722 117.616C50.6056 117.147 49.7629 116.507 49.1442 115.696C48.5256 114.864 48.1842 113.915 48.1202 112.848H51.1282C51.2136 113.723 51.6189 114.437 52.3442 114.992C53.0909 115.547 54.0616 115.824 55.2562 115.824C56.3656 115.824 57.2402 115.579 57.8802 115.088C58.5203 114.597 58.8403 113.979 58.8403 113.232C58.8403 112.464 58.4989 111.899 57.8162 111.536C57.1336 111.152 56.0776 110.779 54.6482 110.416C53.3469 110.075 52.2802 109.733 51.4482 109.392C50.6376 109.029 49.9336 108.507 49.3362 107.824C48.7602 107.12 48.4722 106.203 48.4722 105.072C48.4722 104.176 48.7389 103.355 49.2722 102.608C49.8056 101.861 50.5629 101.275 51.5442 100.848C52.5256 100.4 53.6456 100.176 54.9042 100.176C56.8456 100.176 58.4136 100.667 59.6082 101.648C60.8029 102.629 61.4429 103.973 61.5282 105.68H58.6163C58.5522 104.763 58.1789 104.027 57.4962 103.472C56.8349 102.917 55.9389 102.64 54.8082 102.64C53.7629 102.64 52.9309 102.864 52.3122 103.312C51.6936 103.76 51.3842 104.347 51.3842 105.072C51.3842 105.648 51.5656 106.128 51.9282 106.512C52.3122 106.875 52.7816 107.173 53.3362 107.408C53.9122 107.621 54.7016 107.867 55.7042 108.144C56.9629 108.485 57.9869 108.827 58.7762 109.168C59.5656 109.488 60.2376 109.979 60.7922 110.64C61.3682 111.301 61.6669 112.165 61.6882 113.232C61.6882 114.192 61.4216 115.056 60.8882 115.824C60.3549 116.592 59.5976 117.2 58.6163 117.648C57.6562 118.075 56.5469 118.288 55.2882 118.288ZM81.1782 118.288C79.8342 118.288 78.6289 118.064 77.5622 117.616C76.4956 117.147 75.6529 116.507 75.0342 115.696C74.4156 114.864 74.0742 113.915 74.0102 112.848H77.0182C77.1036 113.723 77.5089 114.437 78.2342 114.992C78.9809 115.547 79.9516 115.824 81.1462 115.824C82.2556 115.824 83.1302 115.579 83.7702 115.088C84.4102 114.597 84.7302 113.979 84.7302 113.232C84.7302 112.464 84.3889 111.899 83.7062 111.536C83.0236 111.152 81.9676 110.779 80.5382 110.416C79.2369 110.075 78.1702 109.733 77.3382 109.392C76.5276 109.029 75.8236 108.507 75.2262 107.824C74.6502 107.12 74.3622 106.203 74.3622 105.072C74.3622 104.176 74.6289 103.355 75.1622 102.608C75.6956 101.861 76.4529 101.275 77.4342 100.848C78.4156 100.4 79.5356 100.176 80.7942 100.176C82.7356 100.176 84.3036 100.667 85.4982 101.648C86.6929 102.629 87.3329 103.973 87.4182 105.68H84.5062C84.4422 104.763 84.0689 104.027 83.3862 103.472C82.7249 102.917 81.8289 102.64 80.6982 102.64C79.6529 102.64 78.8209 102.864 78.2022 103.312C77.5836 103.76 77.2742 104.347 77.2742 105.072C77.2742 105.648 77.4556 106.128 77.8182 106.512C78.2022 106.875 78.6716 107.173 79.2262 107.408C79.8022 107.621 80.5916 107.867 81.5942 108.144C82.8529 108.485 83.8769 108.827 84.6662 109.168C85.4556 109.488 86.1276 109.979 86.6822 110.64C87.2582 111.301 87.5569 112.165 87.5782 113.232C87.5782 114.192 87.3116 115.056 86.7782 115.824C86.2449 116.592 85.4876 117.2 84.5062 117.648C83.5462 118.075 82.4369 118.288 81.1782 118.288ZM108.009 108.56C108.009 109.115 107.977 109.701 107.913 110.32H93.897C94.0037 112.048 94.5903 113.403 95.657 114.384C96.745 115.344 98.057 115.824 99.593 115.824C100.852 115.824 101.897 115.536 102.729 114.96C103.582 114.363 104.18 113.573 104.521 112.592H107.657C107.188 114.277 106.249 115.653 104.841 116.72C103.433 117.765 101.684 118.288 99.593 118.288C97.929 118.288 96.4357 117.915 95.113 117.168C93.8117 116.421 92.7877 115.365 92.041 114C91.2943 112.613 90.921 111.013 90.921 109.2C90.921 107.387 91.2837 105.797 92.009 104.432C92.7343 103.067 93.7477 102.021 95.049 101.296C96.3717 100.549 97.8863 100.176 99.593 100.176C101.257 100.176 102.729 100.539 104.009 101.264C105.289 101.989 106.27 102.992 106.953 104.272C107.657 105.531 108.009 106.96 108.009 108.56ZM105.001 107.952C105.001 106.843 104.756 105.893 104.265 105.104C103.774 104.293 103.102 103.685 102.249 103.28C101.417 102.853 100.489 102.64 99.465 102.64C97.993 102.64 96.7343 103.109 95.689 104.048C94.665 104.987 94.0783 106.288 93.929 107.952H105.001ZM111.085 109.2C111.085 107.387 111.447 105.808 112.173 104.464C112.898 103.099 113.901 102.043 115.181 101.296C116.482 100.549 117.965 100.176 119.629 100.176C121.783 100.176 123.554 100.699 124.941 101.744C126.349 102.789 127.277 104.24 127.725 106.096H124.589C124.29 105.029 123.703 104.187 122.829 103.568C121.975 102.949 120.909 102.64 119.629 102.64C117.965 102.64 116.621 103.216 115.597 104.368C114.573 105.499 114.061 107.109 114.061 109.2C114.061 111.312 114.573 112.944 115.597 114.096C116.621 115.248 117.965 115.824 119.629 115.824C120.909 115.824 121.975 115.525 122.829 114.928C123.682 114.331 124.269 113.477 124.589 112.368H127.725C127.255 114.16 126.317 115.6 124.909 116.688C123.501 117.755 121.741 118.288 119.629 118.288C117.965 118.288 116.482 117.915 115.181 117.168C113.901 116.421 112.898 115.365 112.173 114C111.447 112.635 111.085 111.035 111.085 109.2ZM135.482 102.864V113.2C135.482 114.053 135.664 114.661 136.026 115.024C136.389 115.365 137.018 115.536 137.914 115.536H140.058V118H137.434C135.813 118 134.597 117.627 133.786 116.88C132.976 116.133 132.57 114.907 132.57 113.2V102.864H130.298V100.464H132.57V96.048H135.482V100.464H140.058V102.864H135.482ZM145.411 97.616C144.856 97.616 144.387 97.424 144.003 97.04C143.619 96.656 143.427 96.1867 143.427 95.632C143.427 95.0773 143.619 94.608 144.003 94.224C144.387 93.84 144.856 93.648 145.411 93.648C145.944 93.648 146.392 93.84 146.755 94.224C147.139 94.608 147.331 95.0773 147.331 95.632C147.331 96.1867 147.139 96.656 146.755 97.04C146.392 97.424 145.944 97.616 145.411 97.616ZM146.819 100.464V118H143.907V100.464H146.819ZM159.749 118.288C158.107 118.288 156.613 117.915 155.269 117.168C153.947 116.421 152.901 115.365 152.133 114C151.387 112.613 151.013 111.013 151.013 109.2C151.013 107.408 151.397 105.829 152.165 104.464C152.955 103.077 154.021 102.021 155.365 101.296C156.709 100.549 158.213 100.176 159.877 100.176C161.541 100.176 163.045 100.549 164.389 101.296C165.733 102.021 166.789 103.067 167.557 104.432C168.347 105.797 168.741 107.387 168.741 109.2C168.741 111.013 168.336 112.613 167.525 114C166.736 115.365 165.659 116.421 164.293 117.168C162.928 117.915 161.413 118.288 159.749 118.288ZM159.749 115.728C160.795 115.728 161.776 115.483 162.693 114.992C163.611 114.501 164.347 113.765 164.901 112.784C165.477 111.803 165.765 110.608 165.765 109.2C165.765 107.792 165.488 106.597 164.933 105.616C164.379 104.635 163.653 103.909 162.757 103.44C161.861 102.949 160.891 102.704 159.845 102.704C158.779 102.704 157.797 102.949 156.901 103.44C156.027 103.909 155.323 104.635 154.789 105.616C154.256 106.597 153.989 107.792 153.989 109.2C153.989 110.629 154.245 111.835 154.757 112.816C155.291 113.797 155.995 114.533 156.869 115.024C157.744 115.493 158.704 115.728 159.749 115.728ZM181.434 100.144C183.568 100.144 185.296 100.795 186.618 102.096C187.941 103.376 188.602 105.232 188.602 107.664V118H185.722V108.08C185.722 106.331 185.285 104.997 184.41 104.08C183.536 103.141 182.341 102.672 180.826 102.672C179.29 102.672 178.064 103.152 177.146 104.112C176.25 105.072 175.802 106.469 175.802 108.304V118H172.89V100.464H175.802V102.96C176.378 102.064 177.157 101.371 178.138 100.88C179.141 100.389 180.24 100.144 181.434 100.144ZM204.034 97.616C203.48 97.616 203.01 97.424 202.626 97.04C202.242 96.656 202.05 96.1867 202.05 95.632C202.05 95.0773 202.242 94.608 202.626 94.224C203.01 93.84 203.48 93.648 204.034 93.648C204.568 93.648 205.016 93.84 205.378 94.224C205.762 94.608 205.954 95.0773 205.954 95.632C205.954 96.1867 205.762 96.656 205.378 97.04C205.016 97.424 204.568 97.616 204.034 97.616ZM205.442 100.464V118H202.53V100.464H205.442ZM219.269 100.144C221.403 100.144 223.131 100.795 224.453 102.096C225.776 103.376 226.437 105.232 226.437 107.664V118H223.557V108.08C223.557 106.331 223.12 104.997 222.245 104.08C221.371 103.141 220.176 102.672 218.661 102.672C217.125 102.672 215.899 103.152 214.981 104.112C214.085 105.072 213.637 106.469 213.637 108.304V118H210.725V100.464H213.637V102.96C214.213 102.064 214.992 101.371 215.973 100.88C216.976 100.389 218.075 100.144 219.269 100.144ZM230.426 109.168C230.426 107.376 230.789 105.808 231.514 104.464C232.239 103.099 233.231 102.043 234.49 101.296C235.77 100.549 237.199 100.176 238.778 100.176C240.143 100.176 241.413 100.496 242.586 101.136C243.759 101.755 244.655 102.576 245.274 103.6V94.32H248.218V118H245.274V114.704C244.698 115.749 243.845 116.613 242.714 117.296C241.583 117.957 240.261 118.288 238.746 118.288C237.189 118.288 235.77 117.904 234.49 117.136C233.231 116.368 232.239 115.291 231.514 113.904C230.789 112.517 230.426 110.939 230.426 109.168ZM245.274 109.2C245.274 107.877 245.007 106.725 244.474 105.744C243.941 104.763 243.215 104.016 242.298 103.504C241.402 102.971 240.41 102.704 239.322 102.704C238.234 102.704 237.242 102.96 236.346 103.472C235.45 103.984 234.735 104.731 234.202 105.712C233.669 106.693 233.402 107.845 233.402 109.168C233.402 110.512 233.669 111.685 234.202 112.688C234.735 113.669 235.45 114.427 236.346 114.96C237.242 115.472 238.234 115.728 239.322 115.728C240.41 115.728 241.402 115.472 242.298 114.96C243.215 114.427 243.941 113.669 244.474 112.688C245.007 111.685 245.274 110.523 245.274 109.2ZM254.963 97.616C254.408 97.616 253.939 97.424 253.555 97.04C253.171 96.656 252.979 96.1867 252.979 95.632C252.979 95.0773 253.171 94.608 253.555 94.224C253.939 93.84 254.408 93.648 254.963 93.648C255.496 93.648 255.944 93.84 256.307 94.224C256.691 94.608 256.883 95.0773 256.883 95.632C256.883 96.1867 256.691 96.656 256.307 97.04C255.944 97.424 255.496 97.616 254.963 97.616ZM256.371 100.464V118H253.459V100.464H256.371ZM260.566 109.2C260.566 107.387 260.929 105.808 261.654 104.464C262.379 103.099 263.382 102.043 264.662 101.296C265.963 100.549 267.446 100.176 269.11 100.176C271.265 100.176 273.035 100.699 274.422 101.744C275.83 102.789 276.758 104.24 277.206 106.096H274.07C273.771 105.029 273.185 104.187 272.31 103.568C271.457 102.949 270.39 102.64 269.11 102.64C267.446 102.64 266.102 103.216 265.078 104.368C264.054 105.499 263.542 107.109 263.542 109.2C263.542 111.312 264.054 112.944 265.078 114.096C266.102 115.248 267.446 115.824 269.11 115.824C270.39 115.824 271.457 115.525 272.31 114.928C273.163 114.331 273.75 113.477 274.07 112.368H277.206C276.737 114.16 275.798 115.6 274.39 116.688C272.982 117.755 271.222 118.288 269.11 118.288C267.446 118.288 265.963 117.915 264.662 117.168C263.382 116.421 262.379 115.365 261.654 114C260.929 112.635 260.566 111.035 260.566 109.2ZM280.324 109.168C280.324 107.376 280.686 105.808 281.412 104.464C282.137 103.099 283.129 102.043 284.388 101.296C285.668 100.549 287.086 100.176 288.644 100.176C290.18 100.176 291.513 100.507 292.644 101.168C293.774 101.829 294.617 102.661 295.172 103.664V100.464H298.116V118H295.172V114.736C294.596 115.76 293.732 116.613 292.58 117.296C291.449 117.957 290.126 118.288 288.612 118.288C287.054 118.288 285.646 117.904 284.388 117.136C283.129 116.368 282.137 115.291 281.412 113.904C280.686 112.517 280.324 110.939 280.324 109.168ZM295.172 109.2C295.172 107.877 294.905 106.725 294.372 105.744C293.838 104.763 293.113 104.016 292.196 103.504C291.3 102.971 290.308 102.704 289.22 102.704C288.132 102.704 287.14 102.96 286.244 103.472C285.348 103.984 284.633 104.731 284.1 105.712C283.566 106.693 283.3 107.845 283.3 109.168C283.3 110.512 283.566 111.685 284.1 112.688C284.633 113.669 285.348 114.427 286.244 114.96C287.14 115.472 288.132 115.728 289.22 115.728C290.308 115.728 291.3 115.472 292.196 114.96C293.113 114.427 293.838 113.669 294.372 112.688C294.905 111.685 295.172 110.523 295.172 109.2ZM306.908 102.864V113.2C306.908 114.053 307.09 114.661 307.452 115.024C307.815 115.365 308.444 115.536 309.34 115.536H311.484V118H308.86C307.239 118 306.023 117.627 305.212 116.88C304.402 116.133 303.996 114.907 303.996 113.2V102.864H301.724V100.464H303.996V96.048H306.908V100.464H311.484V102.864H306.908ZM331.333 108.56C331.333 109.115 331.301 109.701 331.237 110.32H317.221C317.327 112.048 317.914 113.403 318.981 114.384C320.069 115.344 321.381 115.824 322.917 115.824C324.175 115.824 325.221 115.536 326.053 114.96C326.906 114.363 327.503 113.573 327.845 112.592H330.981C330.511 114.277 329.573 115.653 328.165 116.72C326.757 117.765 325.007 118.288 322.917 118.288C321.253 118.288 319.759 117.915 318.437 117.168C317.135 116.421 316.111 115.365 315.365 114C314.618 112.613 314.245 111.013 314.245 109.2C314.245 107.387 314.607 105.797 315.333 104.432C316.058 103.067 317.071 102.021 318.373 101.296C319.695 100.549 321.21 100.176 322.917 100.176C324.581 100.176 326.053 100.539 327.333 101.264C328.613 101.989 329.594 102.992 330.277 104.272C330.981 105.531 331.333 106.96 331.333 108.56ZM328.325 107.952C328.325 106.843 328.079 105.893 327.589 105.104C327.098 104.293 326.426 103.685 325.573 103.28C324.741 102.853 323.813 102.64 322.789 102.64C321.317 102.64 320.058 103.109 319.013 104.048C317.989 104.987 317.402 106.288 317.253 107.952H328.325ZM341.705 118.288C340.361 118.288 339.155 118.064 338.089 117.616C337.022 117.147 336.179 116.507 335.561 115.696C334.942 114.864 334.601 113.915 334.537 112.848H337.545C337.63 113.723 338.035 114.437 338.761 114.992C339.507 115.547 340.478 115.824 341.673 115.824C342.782 115.824 343.657 115.579 344.297 115.088C344.937 114.597 345.257 113.979 345.257 113.232C345.257 112.464 344.915 111.899 344.233 111.536C343.55 111.152 342.494 110.779 341.065 110.416C339.763 110.075 338.697 109.733 337.865 109.392C337.054 109.029 336.35 108.507 335.753 107.824C335.177 107.12 334.889 106.203 334.889 105.072C334.889 104.176 335.155 103.355 335.689 102.608C336.222 101.861 336.979 101.275 337.961 100.848C338.942 100.4 340.062 100.176 341.321 100.176C343.262 100.176 344.83 100.667 346.025 101.648C347.219 102.629 347.859 103.973 347.945 105.68H345.033C344.969 104.763 344.595 104.027 343.913 103.472C343.251 102.917 342.355 102.64 341.225 102.64C340.179 102.64 339.347 102.864 338.729 103.312C338.11 103.76 337.801 104.347 337.801 105.072C337.801 105.648 337.982 106.128 338.345 106.512C338.729 106.875 339.198 107.173 339.753 107.408C340.329 107.621 341.118 107.867 342.121 108.144C343.379 108.485 344.403 108.827 345.193 109.168C345.982 109.488 346.654 109.979 347.209 110.64C347.785 111.301 348.083 112.165 348.105 113.232C348.105 114.192 347.838 115.056 347.305 115.824C346.771 116.592 346.014 117.2 345.033 117.648C344.073 118.075 342.963 118.288 341.705 118.288ZM370.09 100.144C371.413 100.144 372.608 100.432 373.674 101.008C374.741 101.563 375.573 102.405 376.17 103.536C376.789 104.667 377.098 106.043 377.098 107.664V118H374.218V108.08C374.218 106.331 373.781 104.997 372.906 104.08C372.032 103.141 370.837 102.672 369.322 102.672C367.786 102.672 366.56 103.152 365.642 104.112C364.746 105.072 364.298 106.469 364.298 108.304V118H361.386V94.32H364.298V102.96C364.874 102.064 365.664 101.371 366.666 100.88C367.69 100.389 368.832 100.144 370.09 100.144ZM389.823 118.288C388.181 118.288 386.687 117.915 385.343 117.168C384.021 116.421 382.975 115.365 382.207 114C381.461 112.613 381.087 111.013 381.087 109.2C381.087 107.408 381.471 105.829 382.239 104.464C383.029 103.077 384.095 102.021 385.439 101.296C386.783 100.549 388.287 100.176 389.951 100.176C391.615 100.176 393.119 100.549 394.463 101.296C395.807 102.021 396.863 103.067 397.631 104.432C398.421 105.797 398.815 107.387 398.815 109.2C398.815 111.013 398.41 112.613 397.599 114C396.81 115.365 395.733 116.421 394.367 117.168C393.002 117.915 391.487 118.288 389.823 118.288ZM389.823 115.728C390.869 115.728 391.85 115.483 392.767 114.992C393.685 114.501 394.421 113.765 394.975 112.784C395.551 111.803 395.839 110.608 395.839 109.2C395.839 107.792 395.562 106.597 395.007 105.616C394.453 104.635 393.727 103.909 392.831 103.44C391.935 102.949 390.965 102.704 389.919 102.704C388.853 102.704 387.871 102.949 386.975 103.44C386.101 103.909 385.397 104.635 384.863 105.616C384.33 106.597 384.063 107.792 384.063 109.2C384.063 110.629 384.319 111.835 384.831 112.816C385.365 113.797 386.069 114.533 386.943 115.024C387.818 115.493 388.778 115.728 389.823 115.728ZM426.324 100.464L420.852 118H417.844L413.62 104.08L409.396 118H406.388L400.884 100.464H403.86L407.892 115.184L412.244 100.464H415.22L419.476 115.216L423.444 100.464H426.324ZM441.297 95.696V118H438.385V95.696H441.297ZM461.639 118.288C460.295 118.288 459.09 118.064 458.023 117.616C456.957 117.147 456.114 116.507 455.495 115.696C454.877 114.864 454.535 113.915 454.471 112.848H457.479C457.565 113.723 457.97 114.437 458.695 114.992C459.442 115.547 460.413 115.824 461.607 115.824C462.717 115.824 463.591 115.579 464.231 115.088C464.871 114.597 465.191 113.979 465.191 113.232C465.191 112.464 464.85 111.899 464.167 111.536C463.485 111.152 462.429 110.779 460.999 110.416C459.698 110.075 458.631 109.733 457.799 109.392C456.989 109.029 456.285 108.507 455.687 107.824C455.111 107.12 454.823 106.203 454.823 105.072C454.823 104.176 455.09 103.355 455.623 102.608C456.157 101.861 456.914 101.275 457.895 100.848C458.877 100.4 459.997 100.176 461.255 100.176C463.197 100.176 464.765 100.667 465.959 101.648C467.154 102.629 467.794 103.973 467.879 105.68H464.967C464.903 104.763 464.53 104.027 463.847 103.472C463.186 102.917 462.29 102.64 461.159 102.64C460.114 102.64 459.282 102.864 458.663 103.312C458.045 103.76 457.735 104.347 457.735 105.072C457.735 105.648 457.917 106.128 458.279 106.512C458.663 106.875 459.133 107.173 459.687 107.408C460.263 107.621 461.053 107.867 462.055 108.144C463.314 108.485 464.338 108.827 465.127 109.168C465.917 109.488 466.589 109.979 467.143 110.64C467.719 111.301 468.018 112.165 468.039 113.232C468.039 114.192 467.773 115.056 467.239 115.824C466.706 116.592 465.949 117.2 464.967 117.648C464.007 118.075 462.898 118.288 461.639 118.288ZM480.118 118.288C478.476 118.288 476.982 117.915 475.638 117.168C474.316 116.421 473.27 115.365 472.502 114C471.756 112.613 471.382 111.013 471.382 109.2C471.382 107.408 471.766 105.829 472.534 104.464C473.324 103.077 474.39 102.021 475.734 101.296C477.078 100.549 478.582 100.176 480.246 100.176C481.91 100.176 483.414 100.549 484.758 101.296C486.102 102.021 487.158 103.067 487.926 104.432C488.716 105.797 489.11 107.387 489.11 109.2C489.11 111.013 488.705 112.613 487.894 114C487.105 115.365 486.028 116.421 484.662 117.168C483.297 117.915 481.782 118.288 480.118 118.288ZM480.118 115.728C481.164 115.728 482.145 115.483 483.062 114.992C483.98 114.501 484.716 113.765 485.27 112.784C485.846 111.803 486.134 110.608 486.134 109.2C486.134 107.792 485.857 106.597 485.302 105.616C484.748 104.635 484.022 103.909 483.126 103.44C482.23 102.949 481.26 102.704 480.214 102.704C479.148 102.704 478.166 102.949 477.27 103.44C476.396 103.909 475.692 104.635 475.158 105.616C474.625 106.597 474.358 107.792 474.358 109.2C474.358 110.629 474.614 111.835 475.126 112.816C475.66 113.797 476.364 114.533 477.238 115.024C478.113 115.493 479.073 115.728 480.118 115.728ZM496.171 94.32V118H493.259V94.32H496.171ZM507.982 115.312L513.422 100.464H516.526L509.646 118H506.254L499.374 100.464H502.51L507.982 115.312ZM535.711 108.56C535.711 109.115 535.679 109.701 535.615 110.32H521.599C521.706 112.048 522.293 113.403 523.359 114.384C524.447 115.344 525.759 115.824 527.295 115.824C528.554 115.824 529.599 115.536 530.431 114.96C531.285 114.363 531.882 113.573 532.223 112.592H535.359C534.89 114.277 533.951 115.653 532.543 116.72C531.135 117.765 529.386 118.288 527.295 118.288C525.631 118.288 524.138 117.915 522.815 117.168C521.514 116.421 520.49 115.365 519.743 114C518.997 112.613 518.623 111.013 518.623 109.2C518.623 107.387 518.986 105.797 519.711 104.432C520.437 103.067 521.45 102.021 522.751 101.296C524.074 100.549 525.589 100.176 527.295 100.176C528.959 100.176 530.431 100.539 531.711 101.264C532.991 101.989 533.973 102.992 534.655 104.272C535.359 105.531 535.711 106.96 535.711 108.56ZM532.703 107.952C532.703 106.843 532.458 105.893 531.967 105.104C531.477 104.293 530.805 103.685 529.951 103.28C529.119 102.853 528.191 102.64 527.167 102.64C525.695 102.64 524.437 103.109 523.391 104.048C522.367 104.987 521.781 106.288 521.631 107.952H532.703ZM552.279 102.864V113.2C552.279 114.053 552.46 114.661 552.823 115.024C553.185 115.365 553.815 115.536 554.711 115.536H556.855V118H554.231C552.609 118 551.393 117.627 550.583 116.88C549.772 116.133 549.367 114.907 549.367 113.2V102.864H547.095V100.464H549.367V96.048H552.279V100.464H556.855V102.864H552.279ZM569.407 100.144C570.729 100.144 571.924 100.432 572.991 101.008C574.057 101.563 574.889 102.405 575.487 103.536C576.105 104.667 576.415 106.043 576.415 107.664V118H573.535V108.08C573.535 106.331 573.097 104.997 572.223 104.08C571.348 103.141 570.153 102.672 568.639 102.672C567.103 102.672 565.876 103.152 564.959 104.112C564.063 105.072 563.615 106.469 563.615 108.304V118H560.703V94.32H563.615V102.96C564.191 102.064 564.98 101.371 565.983 100.88C567.007 100.389 568.148 100.144 569.407 100.144ZM597.492 108.56C597.492 109.115 597.46 109.701 597.396 110.32H583.38C583.486 112.048 584.073 113.403 585.14 114.384C586.228 115.344 587.54 115.824 589.076 115.824C590.334 115.824 591.38 115.536 592.212 114.96C593.065 114.363 593.662 113.573 594.004 112.592H597.14C596.67 114.277 595.732 115.653 594.324 116.72C592.916 117.765 591.166 118.288 589.076 118.288C587.412 118.288 585.918 117.915 584.596 117.168C583.294 116.421 582.27 115.365 581.524 114C580.777 112.613 580.404 111.013 580.404 109.2C580.404 107.387 580.766 105.797 581.492 104.432C582.217 103.067 583.23 102.021 584.532 101.296C585.854 100.549 587.369 100.176 589.076 100.176C590.74 100.176 592.212 100.539 593.492 101.264C594.772 101.989 595.753 102.992 596.436 104.272C597.14 105.531 597.492 106.96 597.492 108.56ZM594.484 107.952C594.484 106.843 594.238 105.893 593.748 105.104C593.257 104.293 592.585 103.685 591.732 103.28C590.9 102.853 589.972 102.64 588.948 102.64C587.476 102.64 586.217 103.109 585.172 104.048C584.148 104.987 583.561 106.288 583.412 107.952H594.484ZM613.418 103.696C613.994 102.693 614.848 101.861 615.978 101.2C617.13 100.517 618.464 100.176 619.978 100.176C621.536 100.176 622.944 100.549 624.202 101.296C625.482 102.043 626.485 103.099 627.21 104.464C627.936 105.808 628.298 107.376 628.298 109.168C628.298 110.939 627.936 112.517 627.21 113.904C626.485 115.291 625.482 116.368 624.202 117.136C622.944 117.904 621.536 118.288 619.978 118.288C618.485 118.288 617.162 117.957 616.01 117.296C614.88 116.613 614.016 115.771 613.418 114.768V126.32H610.506V100.464H613.418V103.696ZM625.322 109.168C625.322 107.845 625.056 106.693 624.522 105.712C623.989 104.731 623.264 103.984 622.346 103.472C621.45 102.96 620.458 102.704 619.37 102.704C618.304 102.704 617.312 102.971 616.394 103.504C615.498 104.016 614.773 104.773 614.218 105.776C613.685 106.757 613.418 107.899 613.418 109.2C613.418 110.523 613.685 111.685 614.218 112.688C614.773 113.669 615.498 114.427 616.394 114.96C617.312 115.472 618.304 115.728 619.37 115.728C620.458 115.728 621.45 115.472 622.346 114.96C623.264 114.427 623.989 113.669 624.522 112.688C625.056 111.685 625.322 110.512 625.322 109.168ZM635.363 103.312C635.875 102.309 636.601 101.531 637.539 100.976C638.499 100.421 639.662 100.144 641.027 100.144V103.152H640.259C636.995 103.152 635.363 104.923 635.363 108.464V118H632.451V100.464H635.363V103.312ZM652.357 118.288C650.714 118.288 649.221 117.915 647.877 117.168C646.554 116.421 645.509 115.365 644.741 114C643.994 112.613 643.621 111.013 643.621 109.2C643.621 107.408 644.005 105.829 644.773 104.464C645.562 103.077 646.629 102.021 647.973 101.296C649.317 100.549 650.821 100.176 652.485 100.176C654.149 100.176 655.653 100.549 656.997 101.296C658.341 102.021 659.397 103.067 660.165 104.432C660.954 105.797 661.349 107.387 661.349 109.2C661.349 111.013 660.944 112.613 660.133 114C659.344 115.365 658.266 116.421 656.901 117.168C655.536 117.915 654.021 118.288 652.357 118.288ZM652.357 115.728C653.402 115.728 654.384 115.483 655.301 114.992C656.218 114.501 656.954 113.765 657.509 112.784C658.085 111.803 658.373 110.608 658.373 109.2C658.373 107.792 658.096 106.597 657.541 105.616C656.986 104.635 656.261 103.909 655.365 103.44C654.469 102.949 653.498 102.704 652.453 102.704C651.386 102.704 650.405 102.949 649.509 103.44C648.634 103.909 647.93 104.635 647.397 105.616C646.864 106.597 646.597 107.792 646.597 109.2C646.597 110.629 646.853 111.835 647.365 112.816C647.898 113.797 648.602 114.533 649.477 115.024C650.352 115.493 651.312 115.728 652.357 115.728ZM668.41 103.728C669.007 102.683 669.882 101.829 671.034 101.168C672.186 100.507 673.498 100.176 674.97 100.176C676.548 100.176 677.967 100.549 679.226 101.296C680.484 102.043 681.476 103.099 682.202 104.464C682.927 105.808 683.29 107.376 683.29 109.168C683.29 110.939 682.927 112.517 682.202 113.904C681.476 115.291 680.474 116.368 679.194 117.136C677.935 117.904 676.527 118.288 674.97 118.288C673.455 118.288 672.122 117.957 670.97 117.296C669.839 116.635 668.986 115.792 668.41 114.768V118H665.498V94.32H668.41V103.728ZM680.314 109.168C680.314 107.845 680.047 106.693 679.514 105.712C678.98 104.731 678.255 103.984 677.338 103.472C676.442 102.96 675.45 102.704 674.362 102.704C673.295 102.704 672.303 102.971 671.386 103.504C670.49 104.016 669.764 104.773 669.21 105.776C668.676 106.757 668.41 107.899 668.41 109.2C668.41 110.523 668.676 111.685 669.21 112.688C669.764 113.669 670.49 114.427 671.386 114.96C672.303 115.472 673.295 115.728 674.362 115.728C675.45 115.728 676.442 115.472 677.338 114.96C678.255 114.427 678.98 113.669 679.514 112.688C680.047 111.685 680.314 110.512 680.314 109.168ZM690.355 94.32V118H687.443V94.32H690.355ZM711.638 108.56C711.638 109.115 711.606 109.701 711.542 110.32H697.526C697.632 112.048 698.219 113.403 699.286 114.384C700.374 115.344 701.686 115.824 703.222 115.824C704.48 115.824 705.526 115.536 706.358 114.96C707.211 114.363 707.808 113.573 708.15 112.592H711.286C710.816 114.277 709.878 115.653 708.47 116.72C707.062 117.765 705.312 118.288 703.222 118.288C701.558 118.288 700.064 117.915 698.742 117.168C697.44 116.421 696.416 115.365 695.67 114C694.923 112.613 694.55 111.013 694.55 109.2C694.55 107.387 694.912 105.797 695.638 104.432C696.363 103.067 697.376 102.021 698.678 101.296C700 100.549 701.515 100.176 703.222 100.176C704.886 100.176 706.358 100.539 707.638 101.264C708.918 101.989 709.899 102.992 710.582 104.272C711.286 105.531 711.638 106.96 711.638 108.56ZM708.63 107.952C708.63 106.843 708.384 105.893 707.894 105.104C707.403 104.293 706.731 103.685 705.878 103.28C705.046 102.853 704.118 102.64 703.094 102.64C701.622 102.64 700.363 103.109 699.318 104.048C698.294 104.987 697.707 106.288 697.558 107.952H708.63ZM736.89 100.144C738.255 100.144 739.471 100.432 740.538 101.008C741.604 101.563 742.447 102.405 743.066 103.536C743.684 104.667 743.994 106.043 743.994 107.664V118H741.114V108.08C741.114 106.331 740.676 104.997 739.802 104.08C738.948 103.141 737.786 102.672 736.314 102.672C734.799 102.672 733.594 103.163 732.698 104.144C731.802 105.104 731.354 106.501 731.354 108.336V118H728.474V108.08C728.474 106.331 728.036 104.997 727.162 104.08C726.308 103.141 725.146 102.672 723.674 102.672C722.159 102.672 720.954 103.163 720.058 104.144C719.162 105.104 718.714 106.501 718.714 108.336V118H715.802V100.464H718.714V102.992C719.29 102.075 720.058 101.371 721.018 100.88C721.999 100.389 723.076 100.144 724.25 100.144C725.722 100.144 727.023 100.475 728.154 101.136C729.284 101.797 730.127 102.768 730.682 104.048C731.172 102.811 731.983 101.851 733.114 101.168C734.244 100.485 735.503 100.144 736.89 100.144ZM761.493 102.864V113.2C761.493 114.053 761.675 114.661 762.037 115.024C762.4 115.365 763.029 115.536 763.925 115.536H766.069V118H763.445C761.824 118 760.608 117.627 759.797 116.88C758.987 116.133 758.581 114.907 758.581 113.2V102.864H756.309V100.464H758.581V96.048H761.493V100.464H766.069V102.864H761.493ZM778.622 100.144C779.944 100.144 781.139 100.432 782.206 101.008C783.272 101.563 784.104 102.405 784.702 103.536C785.32 104.667 785.63 106.043 785.63 107.664V118H782.75V108.08C782.75 106.331 782.312 104.997 781.438 104.08C780.563 103.141 779.368 102.672 777.854 102.672C776.318 102.672 775.091 103.152 774.174 104.112C773.278 105.072 772.83 106.469 772.83 108.304V118H769.918V94.32H772.83V102.96C773.406 102.064 774.195 101.371 775.198 100.88C776.222 100.389 777.363 100.144 778.622 100.144ZM793.618 103.312C794.13 102.309 794.856 101.531 795.794 100.976C796.754 100.421 797.917 100.144 799.282 100.144V103.152H798.514C795.25 103.152 793.618 104.923 793.618 108.464V118H790.706V100.464H793.618V103.312ZM810.612 118.288C808.969 118.288 807.476 117.915 806.132 117.168C804.809 116.421 803.764 115.365 802.996 114C802.249 112.613 801.876 111.013 801.876 109.2C801.876 107.408 802.26 105.829 803.028 104.464C803.817 103.077 804.884 102.021 806.228 101.296C807.572 100.549 809.076 100.176 810.74 100.176C812.404 100.176 813.908 100.549 815.252 101.296C816.596 102.021 817.652 103.067 818.42 104.432C819.209 105.797 819.604 107.387 819.604 109.2C819.604 111.013 819.199 112.613 818.388 114C817.599 115.365 816.521 116.421 815.156 117.168C813.791 117.915 812.276 118.288 810.612 118.288ZM810.612 115.728C811.657 115.728 812.639 115.483 813.556 114.992C814.473 114.501 815.209 113.765 815.764 112.784C816.34 111.803 816.628 110.608 816.628 109.2C816.628 107.792 816.351 106.597 815.796 105.616C815.241 104.635 814.516 103.909 813.62 103.44C812.724 102.949 811.753 102.704 810.708 102.704C809.641 102.704 808.66 102.949 807.764 103.44C806.889 103.909 806.185 104.635 805.652 105.616C805.119 106.597 804.852 107.792 804.852 109.2C804.852 110.629 805.108 111.835 805.62 112.816C806.153 113.797 806.857 114.533 807.732 115.024C808.607 115.493 809.567 115.728 810.612 115.728ZM839.305 100.464V118H836.393V115.408C835.838 116.304 835.059 117.008 834.057 117.52C833.075 118.011 831.987 118.256 830.793 118.256C829.427 118.256 828.201 117.979 827.113 117.424C826.025 116.848 825.161 115.995 824.521 114.864C823.902 113.733 823.593 112.357 823.593 110.736V100.464H826.473V110.352C826.473 112.08 826.91 113.413 827.785 114.352C828.659 115.269 829.854 115.728 831.369 115.728C832.926 115.728 834.153 115.248 835.049 114.288C835.945 113.328 836.393 111.931 836.393 110.096V100.464H839.305ZM851.774 100.176C853.288 100.176 854.611 100.507 855.742 101.168C856.894 101.829 857.747 102.661 858.302 103.664V100.464H861.246V118.384C861.246 119.984 860.904 121.403 860.222 122.64C859.539 123.899 858.558 124.88 857.278 125.584C856.019 126.288 854.547 126.64 852.862 126.64C850.558 126.64 848.638 126.096 847.102 125.008C845.566 123.92 844.659 122.437 844.382 120.56H847.262C847.582 121.627 848.243 122.48 849.246 123.12C850.248 123.781 851.454 124.112 852.862 124.112C854.462 124.112 855.763 123.611 856.766 122.608C857.79 121.605 858.302 120.197 858.302 118.384V114.704C857.726 115.728 856.872 116.581 855.742 117.264C854.611 117.947 853.288 118.288 851.774 118.288C850.216 118.288 848.798 117.904 847.518 117.136C846.259 116.368 845.267 115.291 844.542 113.904C843.816 112.517 843.454 110.939 843.454 109.168C843.454 107.376 843.816 105.808 844.542 104.464C845.267 103.099 846.259 102.043 847.518 101.296C848.798 100.549 850.216 100.176 851.774 100.176ZM858.302 109.2C858.302 107.877 858.035 106.725 857.502 105.744C856.968 104.763 856.243 104.016 855.326 103.504C854.43 102.971 853.438 102.704 852.35 102.704C851.262 102.704 850.27 102.96 849.374 103.472C848.478 103.984 847.763 104.731 847.23 105.712C846.696 106.693 846.43 107.845 846.43 109.168C846.43 110.512 846.696 111.685 847.23 112.688C847.763 113.669 848.478 114.427 849.374 114.96C850.27 115.472 851.262 115.728 852.35 115.728C853.438 115.728 854.43 115.472 855.326 114.96C856.243 114.427 856.968 113.669 857.502 112.688C858.035 111.685 858.302 110.523 858.302 109.2ZM875.191 100.144C876.513 100.144 877.708 100.432 878.775 101.008C879.841 101.563 880.673 102.405 881.271 103.536C881.889 104.667 882.199 106.043 882.199 107.664V118H879.319V108.08C879.319 106.331 878.881 104.997 878.007 104.08C877.132 103.141 875.937 102.672 874.423 102.672C872.887 102.672 871.66 103.152 870.743 104.112C869.847 105.072 869.399 106.469 869.399 108.304V118H866.487V94.32H869.399V102.96C869.975 102.064 870.764 101.371 871.767 100.88C872.791 100.389 873.932 100.144 875.191 100.144ZM899.038 103.728C899.636 102.683 900.51 101.829 901.662 101.168C902.814 100.507 904.126 100.176 905.598 100.176C907.177 100.176 908.596 100.549 909.854 101.296C911.113 102.043 912.105 103.099 912.83 104.464C913.556 105.808 913.918 107.376 913.918 109.168C913.918 110.939 913.556 112.517 912.83 113.904C912.105 115.291 911.102 116.368 909.822 117.136C908.564 117.904 907.156 118.288 905.598 118.288C904.084 118.288 902.75 117.957 901.598 117.296C900.468 116.635 899.614 115.792 899.038 114.768V118H896.126V94.32H899.038V103.728ZM910.942 109.168C910.942 107.845 910.676 106.693 910.142 105.712C909.609 104.731 908.884 103.984 907.966 103.472C907.07 102.96 906.078 102.704 904.99 102.704C903.924 102.704 902.932 102.971 902.014 103.504C901.118 104.016 900.393 104.773 899.838 105.776C899.305 106.757 899.038 107.899 899.038 109.2C899.038 110.523 899.305 111.685 899.838 112.688C900.393 113.669 901.118 114.427 902.014 114.96C902.932 115.472 903.924 115.728 904.99 115.728C906.078 115.728 907.07 115.472 907.966 114.96C908.884 114.427 909.609 113.669 910.142 112.688C910.676 111.685 910.942 110.512 910.942 109.168ZM934.071 108.56C934.071 109.115 934.039 109.701 933.975 110.32H919.959C920.066 112.048 920.653 113.403 921.719 114.384C922.807 115.344 924.119 115.824 925.655 115.824C926.914 115.824 927.959 115.536 928.791 114.96C929.645 114.363 930.242 113.573 930.583 112.592H933.719C933.25 114.277 932.311 115.653 930.903 116.72C929.495 117.765 927.746 118.288 925.655 118.288C923.991 118.288 922.498 117.915 921.175 117.168C919.874 116.421 918.85 115.365 918.103 114C917.357 112.613 916.983 111.013 916.983 109.2C916.983 107.387 917.346 105.797 918.071 104.432C918.797 103.067 919.81 102.021 921.111 101.296C922.434 100.549 923.949 100.176 925.655 100.176C927.319 100.176 928.791 100.539 930.071 101.264C931.351 101.989 932.333 102.992 933.015 104.272C933.719 105.531 934.071 106.96 934.071 108.56ZM931.063 107.952C931.063 106.843 930.818 105.893 930.327 105.104C929.837 104.293 929.165 103.685 928.311 103.28C927.479 102.853 926.551 102.64 925.527 102.64C924.055 102.64 922.797 103.109 921.751 104.048C920.727 104.987 920.141 106.288 919.991 107.952H931.063ZM937.147 109.168C937.147 107.376 937.51 105.808 938.235 104.464C938.961 103.099 939.953 102.043 941.211 101.296C942.491 100.549 943.91 100.176 945.467 100.176C947.003 100.176 948.337 100.507 949.467 101.168C950.598 101.829 951.441 102.661 951.995 103.664V100.464H954.939V118H951.995V114.736C951.419 115.76 950.555 116.613 949.403 117.296C948.273 117.957 946.95 118.288 945.435 118.288C943.878 118.288 942.47 117.904 941.211 117.136C939.953 116.368 938.961 115.291 938.235 113.904C937.51 112.517 937.147 110.939 937.147 109.168ZM951.995 109.2C951.995 107.877 951.729 106.725 951.195 105.744C950.662 104.763 949.937 104.016 949.019 103.504C948.123 102.971 947.131 102.704 946.043 102.704C944.955 102.704 943.963 102.96 943.067 103.472C942.171 103.984 941.457 104.731 940.923 105.712C940.39 106.693 940.123 107.845 940.123 109.168C940.123 110.512 940.39 111.685 940.923 112.688C941.457 113.669 942.171 114.427 943.067 114.96C943.963 115.472 944.955 115.728 946.043 115.728C947.131 115.728 948.123 115.472 949.019 114.96C949.937 114.427 950.662 113.669 951.195 112.688C951.729 111.685 951.995 110.523 951.995 109.2ZM975.732 100.464V118H972.82V115.408C972.266 116.304 971.487 117.008 970.484 117.52C969.503 118.011 968.415 118.256 967.22 118.256C965.855 118.256 964.628 117.979 963.54 117.424C962.452 116.848 961.588 115.995 960.948 114.864C960.33 113.733 960.02 112.357 960.02 110.736V100.464H962.9V110.352C962.9 112.08 963.338 113.413 964.212 114.352C965.087 115.269 966.282 115.728 967.796 115.728C969.354 115.728 970.58 115.248 971.476 114.288C972.372 113.328 972.82 111.931 972.82 110.096V100.464H975.732ZM984.521 102.864V113.2C984.521 114.053 984.702 114.661 985.065 115.024C985.428 115.365 986.057 115.536 986.953 115.536H989.097V118H986.473C984.852 118 983.636 117.627 982.825 116.88C982.014 116.133 981.609 114.907 981.609 113.2V102.864H979.337V100.464H981.609V96.048H984.521V100.464H989.097V102.864H984.521ZM994.449 97.616C993.895 97.616 993.425 97.424 993.041 97.04C992.657 96.656 992.465 96.1867 992.465 95.632C992.465 95.0773 992.657 94.608 993.041 94.224C993.425 93.84 993.895 93.648 994.449 93.648C994.983 93.648 995.431 93.84 995.793 94.224C996.177 94.608 996.369 95.0773 996.369 95.632C996.369 96.1867 996.177 96.656 995.793 97.04C995.431 97.424 994.983 97.616 994.449 97.616ZM995.857 100.464V118H992.945V100.464H995.857ZM1008.28 102.864H1004.6V118H1001.68V102.864H999.412V100.464H1001.68V99.216C1001.68 97.2533 1002.19 95.824 1003.19 94.928C1004.21 94.0107 1005.84 93.552 1008.08 93.552V95.984C1006.8 95.984 1005.9 96.24 1005.36 96.752C1004.85 97.2427 1004.6 98.064 1004.6 99.216V100.464H1008.28V102.864ZM1027.54 100.464V118H1024.63V115.408C1024.08 116.304 1023.3 117.008 1022.3 117.52C1021.31 118.011 1020.23 118.256 1019.03 118.256C1017.67 118.256 1016.44 117.979 1015.35 117.424C1014.26 116.848 1013.4 115.995 1012.76 114.864C1012.14 113.733 1011.83 112.357 1011.83 110.736V100.464H1014.71V110.352C1014.71 112.08 1015.15 113.413 1016.02 114.352C1016.9 115.269 1018.09 115.728 1019.61 115.728C1021.16 115.728 1022.39 115.248 1023.29 114.288C1024.18 113.328 1024.63 111.931 1024.63 110.096V100.464H1027.54ZM1035.69 94.32V118H1032.78V94.32H1035.69ZM1052.67 95.696V109.808C1052.67 111.792 1053.15 113.264 1054.11 114.224C1055.1 115.184 1056.45 115.664 1058.18 115.664C1059.89 115.664 1061.22 115.184 1062.18 114.224C1063.16 113.264 1063.65 111.792 1063.65 109.808V95.696H1066.56V109.776C1066.56 111.632 1066.19 113.2 1065.44 114.48C1064.7 115.739 1063.68 116.677 1062.4 117.296C1061.14 117.915 1059.73 118.224 1058.15 118.224C1056.57 118.224 1055.14 117.915 1053.86 117.296C1052.6 116.677 1051.6 115.739 1050.85 114.48C1050.13 113.2 1049.76 111.632 1049.76 109.776V95.696H1052.67ZM1074.65 95.696V118H1071.74V95.696H1074.65ZM1080.38 95.696H1083.62L1080.54 102.96H1078.5L1080.38 95.696ZM1093.46 118.288C1092.12 118.288 1090.91 118.064 1089.85 117.616C1088.78 117.147 1087.94 116.507 1087.32 115.696C1086.7 114.864 1086.36 113.915 1086.3 112.848H1089.3C1089.39 113.723 1089.79 114.437 1090.52 114.992C1091.27 115.547 1092.24 115.824 1093.43 115.824C1094.54 115.824 1095.42 115.579 1096.06 115.088C1096.7 114.597 1097.02 113.979 1097.02 113.232C1097.02 112.464 1096.67 111.899 1095.99 111.536C1095.31 111.152 1094.25 110.779 1092.82 110.416C1091.52 110.075 1090.46 109.733 1089.62 109.392C1088.81 109.029 1088.11 108.507 1087.51 107.824C1086.94 107.12 1086.65 106.203 1086.65 105.072C1086.65 104.176 1086.91 103.355 1087.45 102.608C1087.98 101.861 1088.74 101.275 1089.72 100.848C1090.7 100.4 1091.82 100.176 1093.08 100.176C1095.02 100.176 1096.59 100.667 1097.78 101.648C1098.98 102.629 1099.62 103.973 1099.7 105.68H1096.79C1096.73 104.763 1096.35 104.027 1095.67 103.472C1095.01 102.917 1094.11 102.64 1092.98 102.64C1091.94 102.64 1091.11 102.864 1090.49 103.312C1089.87 103.76 1089.56 104.347 1089.56 105.072C1089.56 105.648 1089.74 106.128 1090.1 106.512C1090.49 106.875 1090.96 107.173 1091.51 107.408C1092.09 107.621 1092.88 107.867 1093.88 108.144C1095.14 108.485 1096.16 108.827 1096.95 109.168C1097.74 109.488 1098.41 109.979 1098.97 110.64C1099.54 111.301 1099.84 112.165 1099.86 113.232C1099.86 114.192 1099.6 115.056 1099.06 115.824C1098.53 116.592 1097.77 117.2 1096.79 117.648C1095.83 118.075 1094.72 118.288 1093.46 118.288ZM1105.22 118.192C1104.67 118.192 1104.2 118 1103.81 117.616C1103.43 117.232 1103.24 116.763 1103.24 116.208C1103.24 115.653 1103.43 115.184 1103.81 114.8C1104.2 114.416 1104.67 114.224 1105.22 114.224C1105.76 114.224 1106.2 114.416 1106.57 114.8C1106.95 115.184 1107.14 115.653 1107.14 116.208C1107.14 116.763 1106.95 117.232 1106.57 117.616C1106.2 118 1105.76 118.192 1105.22 118.192Z" fill="white" fill-opacity="0.7"/>
</svg>
